<svg xmlns="http://www.w3.org/2000/svg" height="512pt" version="1.1" viewBox="0 -30 512.00058 512" width="512pt">
<g id="surface1">
<path d="M 362.046875 439.222656 C 359.996094 432.007812 355.230469 424.292969 344.242188 424.292969 C 342.144531 383.171875 314.371094 360.835938 313.191406 359.90625 C 305.414062 353.777344 294.140625 355.117188 288.015625 362.894531 C 281.886719 370.667969 283.226562 381.941406 291.003906 388.066406 C 291.164062 388.195312 307.179688 401.476562 308.4375 426.117188 L 308.4375 436.777344 C 308.4375 444.90625 315.027344 451.496094 323.15625 451.496094 L 352.664062 451.496094 C 359.074219 451.496094 363.800781 445.386719 362.046875 439.222656 Z M 362.046875 439.222656 " style=" stroke:none;fill-rule:nonzero;fill:rgb(56.470588%,37.254902%,65.882353%);fill-opacity:1;" />
<path d="M 149.953125 439.222656 C 152.003906 432.007812 156.769531 424.292969 167.757812 424.292969 C 169.855469 383.171875 197.628906 360.835938 198.808594 359.90625 C 206.585938 353.777344 217.859375 355.117188 223.984375 362.894531 C 230.113281 370.667969 228.773438 381.941406 220.996094 388.066406 C 220.835938 388.195312 204.820312 401.476562 203.5625 426.117188 L 203.5625 436.777344 C 203.5625 444.90625 196.972656 451.496094 188.84375 451.496094 L 159.335938 451.496094 C 152.925781 451.496094 148.199219 445.386719 149.953125 439.222656 Z M 149.953125 439.222656 " style=" stroke:none;fill-rule:nonzero;fill:rgb(56.470588%,37.254902%,65.882353%);fill-opacity:1;" />
<path d="M 66.707031 193.929688 C 64.519531 190.195312 59.59375 189.136719 56.097656 191.683594 C 36.875 205.683594 -15.152344 251.941406 4.269531 331.40625 C 5.328125 335.734375 9.933594 338.171875 14.078125 336.527344 C 30.882812 329.871094 71.351562 318.238281 88 352.136719 C 89.636719 355.46875 93.570312 356.972656 97.054688 355.6875 C 113.679688 349.546875 157.523438 336.710938 172.195312 365.5 L 187.898438 281.109375 C 124.773438 283.972656 79.652344 216 66.707031 193.929688 Z M 66.707031 193.929688 " style=" stroke:none;fill-rule:nonzero;fill:rgb(51.372549%,33.72549%,60%);fill-opacity:1;" />
<path d="M 455.902344 191.683594 C 452.40625 189.136719 447.480469 190.195312 445.292969 193.929688 C 432.347656 216 387.226562 283.972656 324.101562 281.109375 L 339.804688 365.5 C 354.476562 336.710938 398.324219 349.546875 414.945312 355.6875 C 418.429688 356.972656 422.367188 355.46875 424.003906 352.136719 C 440.648438 318.238281 481.117188 329.871094 497.921875 336.527344 C 502.066406 338.171875 506.671875 335.734375 507.730469 331.40625 C 527.152344 251.941406 475.125 205.683594 455.902344 191.683594 Z M 455.902344 191.683594 " style=" stroke:none;fill-rule:nonzero;fill:rgb(51.372549%,33.72549%,60%);fill-opacity:1;" />
<path d="M 344.605469 337.792969 C 344.605469 386.730469 304.9375 416.15625 256 416.15625 C 207.0625 416.15625 167.394531 386.730469 167.394531 337.792969 C 167.394531 288.855469 207.0625 249.1875 256 249.1875 C 304.9375 249.1875 344.605469 288.859375 344.605469 337.792969 Z M 344.605469 337.792969 " style=" stroke:none;fill-rule:nonzero;fill:rgb(65.098039%,42.745098%,76.078431%);fill-opacity:1;" />
<path d="M 186.652344 33.15625 C 186.652344 33.15625 161.351562 -2.484375 108.054688 0.136719 C 98.90625 0.589844 91.175781 7.125 89.09375 16.042969 C 83.3125 40.800781 76.921875 92.1875 112.210938 124.121094 Z M 186.652344 33.15625 " style=" stroke:none;fill-rule:nonzero;fill:rgb(56.470588%,37.254902%,65.882353%);fill-opacity:1;" />
<path d="M 121.25 27.003906 C 117.152344 26.605469 113.421875 29.457031 112.765625 33.519531 C 106.058594 75.09375 120.371094 95.585938 130.082031 104.371094 L 165.167969 48.894531 C 164.507812 48.027344 150.363281 29.839844 121.25 27.003906 Z M 121.25 27.003906 " style=" stroke:none;fill-rule:nonzero;fill:rgb(99.215686%,60.392157%,78.431373%);fill-opacity:1;" />
<path d="M 325.347656 33.15625 C 325.347656 33.15625 350.648438 -2.484375 403.945312 0.136719 C 413.09375 0.589844 420.824219 7.125 422.90625 16.042969 C 428.6875 40.800781 435.078125 92.1875 399.789062 124.121094 Z M 325.347656 33.15625 " style=" stroke:none;fill-rule:nonzero;fill:rgb(56.470588%,37.254902%,65.882353%);fill-opacity:1;" />
<path d="M 390.75 27.003906 C 394.847656 26.605469 398.578125 29.457031 399.234375 33.519531 C 405.941406 75.09375 391.628906 95.585938 381.917969 104.371094 L 346.832031 48.894531 C 347.492188 48.027344 361.636719 29.839844 390.75 27.003906 Z M 390.75 27.003906 " style=" stroke:none;fill-rule:nonzero;fill:rgb(99.215686%,60.392157%,78.431373%);fill-opacity:1;" />
<path d="M 172.566406 307.925781 C 197.488281 320.554688 225.882812 327.726562 256 327.726562 C 286.117188 327.726562 314.511719 320.558594 339.433594 307.925781 C 327.175781 273.6875 294.453125 249.1875 256 249.1875 C 217.546875 249.1875 184.824219 273.6875 172.566406 307.925781 Z M 172.566406 307.925781 " style=" stroke:none;fill-rule:nonzero;fill:rgb(56.470588%,37.254902%,65.882353%);fill-opacity:1;" />
<path d="M 403.847656 156.824219 C 403.847656 79.507812 337.65625 16.828125 256 16.828125 C 174.34375 16.828125 108.152344 79.507812 108.152344 156.824219 C 108.152344 234.140625 174.34375 296.820312 256 296.820312 C 337.65625 296.820312 403.847656 234.140625 403.847656 156.824219 Z M 403.847656 156.824219 " style=" stroke:none;fill-rule:nonzero;fill:rgb(65.098039%,42.745098%,76.078431%);fill-opacity:1;" />
<path d="M 184.785156 187.96875 C 180.519531 187.96875 177.058594 184.507812 177.058594 180.242188 L 177.058594 167.351562 C 177.058594 163.085938 180.519531 159.625 184.785156 159.625 C 189.050781 159.625 192.511719 163.085938 192.511719 167.351562 L 192.511719 180.242188 C 192.511719 184.507812 189.050781 187.96875 184.785156 187.96875 Z M 184.785156 187.96875 " style=" stroke:none;fill-rule:nonzero;fill:rgb(22.745098%,28.235294%,29.019608%);fill-opacity:1;" />
<path d="M 327.214844 187.96875 C 322.949219 187.96875 319.488281 184.507812 319.488281 180.242188 L 319.488281 167.351562 C 319.488281 163.085938 322.949219 159.625 327.214844 159.625 C 331.480469 159.625 334.941406 163.085938 334.941406 167.351562 L 334.941406 180.242188 C 334.941406 184.507812 331.480469 187.96875 327.214844 187.96875 Z M 327.214844 187.96875 " style=" stroke:none;fill-rule:nonzero;fill:rgb(22.745098%,28.235294%,29.019608%);fill-opacity:1;" />
<path d="M 256 194.847656 C 246.921875 194.847656 238.394531 191.050781 232.605469 184.429688 C 229.796875 181.214844 230.125 176.335938 233.339844 173.527344 C 236.550781 170.71875 241.433594 171.046875 244.242188 174.257812 C 247.09375 177.523438 251.378906 179.394531 256 179.394531 C 260.621094 179.394531 264.90625 177.523438 267.761719 174.257812 C 270.570312 171.046875 275.449219 170.71875 278.664062 173.527344 C 281.875 176.335938 282.203125 181.214844 279.394531 184.429688 C 273.605469 191.046875 265.078125 194.847656 256 194.847656 Z M 256 194.847656 " style=" stroke:none;fill-rule:nonzero;fill:rgb(22.745098%,28.235294%,29.019608%);fill-opacity:1;" />
</g>
</svg>