<svg xmlns="http://www.w3.org/2000/svg" height="511pt" version="1.1" viewBox="-38 1 511 511.99966" width="511pt">
<g id="surface1">
<path d="M 405.777344 216.410156 C 400.851562 199.855469 395.855469 182.980469 390.40625 166.324219 L 44.945312 166.324219 C 39.496094 182.980469 34.5 199.855469 29.578125 216.410156 C 19.480469 250.40625 5.347656 295.515625 1.496094 340.214844 L 33.273438 399.195312 L 390.40625 399.195312 L 433.859375 340.214844 C 430.007812 295.515625 415.875 250.40625 405.777344 216.410156 Z M 405.777344 216.410156 " style=" stroke:none;fill-rule:nonzero;fill:rgb(97.254902%,63.921569%,24.313725%);fill-opacity:1;" />
<path d="M 120.296875 287.40625 C 116.027344 287.40625 112.570312 283.949219 112.570312 279.679688 L 112.570312 262.058594 C 112.570312 257.789062 116.027344 254.332031 120.296875 254.332031 C 124.5625 254.332031 128.023438 257.789062 128.023438 262.058594 L 128.023438 279.679688 C 128.023438 283.949219 124.5625 287.40625 120.296875 287.40625 Z M 120.296875 287.40625 " style=" stroke:none;fill-rule:nonzero;fill:rgb(22.745098%,28.235294%,29.019608%);fill-opacity:1;" />
<path d="M 315.058594 287.40625 C 310.792969 287.40625 307.332031 283.949219 307.332031 279.679688 L 307.332031 262.058594 C 307.332031 257.789062 310.792969 254.332031 315.058594 254.332031 C 319.328125 254.332031 322.785156 257.789062 322.785156 262.058594 L 322.785156 279.679688 C 322.785156 283.949219 319.328125 287.40625 315.058594 287.40625 Z M 315.058594 287.40625 " style=" stroke:none;fill-rule:nonzero;fill:rgb(22.745098%,28.235294%,29.019608%);fill-opacity:1;" />
<path d="M 217.675781 296.816406 C 206.082031 296.816406 195.199219 291.976562 187.824219 283.539062 C 185.015625 280.328125 185.34375 275.445312 188.554688 272.636719 C 191.769531 269.832031 196.648438 270.15625 199.457031 273.371094 C 203.898438 278.449219 210.539062 281.363281 217.675781 281.363281 C 224.816406 281.363281 231.453125 278.449219 235.894531 273.371094 C 238.703125 270.160156 243.585938 269.832031 246.796875 272.640625 C 250.011719 275.445312 250.339844 280.328125 247.53125 283.542969 C 240.15625 291.976562 229.273438 296.816406 217.675781 296.816406 Z M 217.675781 296.816406 " style=" stroke:none;fill-rule:nonzero;fill:rgb(22.745098%,28.235294%,29.019608%);fill-opacity:1;" />
<path d="M 235.046875 512 C 223.46875 511.976562 211.886719 511.976562 200.308594 512 C 25.382812 512.277344 -5.953125 427 1.496094 340.214844 C 42.113281 353.382812 112.835938 369.257812 217.675781 369.257812 C 322.519531 369.257812 393.242188 353.382812 433.859375 340.214844 C 441.308594 427 409.96875 512.277344 235.046875 512 Z M 235.046875 512 " style=" stroke:none;fill-rule:nonzero;fill:rgb(99.607843%,80.392157%,21.960784%);fill-opacity:1;" />
<path d="M 390.40625 166.324219 C 355.277344 178.714844 298.578125 192.128906 217.675781 192.128906 C 136.777344 192.128906 80.078125 178.714844 44.945312 166.324219 C 73.132812 80.230469 113.453125 0 217.675781 0 C 321.902344 0 362.222656 80.230469 390.40625 166.324219 Z M 390.40625 166.324219 " style=" stroke:none;fill-rule:nonzero;fill:rgb(93.72549%,92.941176%,93.333333%);fill-opacity:1;" />
<path d="M 33.273438 399.195312 L 45.070312 399.195312 C 41.335938 380.308594 40.976562 360.304688 42.703125 340.214844 C 46.554688 295.515625 60.6875 250.40625 70.785156 216.410156 C 75.707031 199.855469 80.703125 182.980469 86.15625 166.324219 L 44.945312 166.324219 C 39.515625 182.921875 34.546875 199.671875 29.578125 216.410156 C 17.53125 256.96875 5.144531 297.867188 1.496094 340.214844 Z M 33.273438 399.195312 " style=" stroke:none;fill-rule:nonzero;fill:rgb(90.196078%,57.254902%,18.039216%);fill-opacity:1;" />
<path d="M 82.613281 177.394531 C 83.777344 173.695312 84.949219 170.003906 86.15625 166.320312 C 112.402344 86.152344 149.183594 11.078125 238.269531 1.125 C 236.652344 0.945312 235.015625 0.785156 233.359375 0.648438 C 233.328125 0.644531 233.292969 0.640625 233.261719 0.640625 C 228.085938 0.171875 222.871094 0 217.675781 0 C 185.105469 0 158.777344 7.835938 137.109375 21.234375 C 124.1875 29.226562 112.71875 39.394531 102.796875 50.875 C 76.167969 81.695312 59.039062 123.277344 44.945312 166.324219 C 55.519531 170.050781 68.0625 173.871094 82.613281 177.394531 Z M 82.613281 177.394531 " style=" stroke:none;fill-rule:nonzero;fill:rgb(83.137255%,83.137255%,83.137255%);fill-opacity:1;" />
<path d="M 235.046875 512 C 236.136719 512 237.195312 511.984375 238.273438 511.980469 C 73.617188 511.226562 38.222656 433.578125 41.972656 351.316406 C 26.148438 347.667969 12.671875 343.839844 1.492188 340.214844 C 1.261719 342.929688 1.066406 345.640625 0.914062 348.347656 C -0.714844 376.96875 2.183594 406.757812 15.003906 432.78125 C 23.300781 449.617188 35.902344 464.414062 51.183594 475.613281 C 81.878906 498.105469 129.246094 512.113281 200.308594 512 C 211.886719 511.976562 223.46875 511.976562 235.046875 512 Z M 235.046875 512 " style=" stroke:none;fill-rule:nonzero;fill:rgb(97.254902%,63.921569%,24.313725%);fill-opacity:1;" />
</g>
</svg>