<?xml version="1.0" encoding="iso-8859-1"?>
<!-- Generator: Adobe Illustrator 19.0.0, SVG Export Plug-In . SVG Version: 6.00 Build 0)  -->
<svg version="1.1" id="Capa_1" xmlns="http://www.w3.org/2000/svg" xmlns:xlink="http://www.w3.org/1999/xlink" x="0px" y="0px"
	 viewBox="0 0 346.497 346.497" style="enable-background:new 0 0 346.497 346.497;" xml:space="preserve">
<path style="fill:#68AA00;" d="M167.249,70.97c0,0,4.4-35.6,21.6-49.6s29.2-15.2,29.2-15.2l19.2,20.4c0,0-49.6,15.2-52.8,61.2
	C181.649,134.17,167.249,70.97,167.249,70.97z"/>
<path style="fill:#F27503;" d="M339.249,144.97c14.8,45.2,5.6,99.2-24.8,140.8c-11.6,16.4-25.6,29.2-40.4,37.6
	c-14.8,8.8-30.4,13.2-46,13.2c-8,0-16.4-1.2-24.4-4l-2.8-0.8l-2.4,1.6c-14.4,9.6-34,9.2-48.4-0.8l-2.4-1.6l-2.8,0.8
	c-8.8,3.2-17.6,4.8-26.8,4.8c-31.2,0-62.8-18.8-86.4-51.2c-30-41.6-39.6-95.6-24.8-140.8c18.8-55.2,60.8-67.2,92.8-67.2
	c25.2,0,45.2,7.2,45.6,7.2l2.8,0.8l2.4-1.6c14.4-10,34-10.4,48.4-0.8l2.4,1.6l2.4-0.8c6.4-2,22.8-6.4,42.8-6.4
	C278.849,77.37,320.849,89.37,339.249,144.97z"/>
<g>
	<path style="fill:#D35C02;" d="M198.849,333.77l2.4-1.6c-1.2,0.8-2,1.2-3.2,2C198.449,334.17,198.849,333.77,198.849,333.77z"/>
	<path style="fill:#D35C02;" d="M201.249,332.17l2.8,0.8c8,2.4,16,4,24.4,4c15.6,0,31.6-4.8,46-13.2c14.8-8.8,28.4-21.6,40.4-37.6
		c30-41.6,39.6-95.6,24.8-140.8c-18.8-56-60.8-68-92.8-68c-20,0-36.8,4.4-42.8,6.4l-2.8,0.8c0,0,47.2,16.8,70.4,52.4
		C298.849,178.57,314.449,285.77,201.249,332.17z"/>
</g>
<g>
	<polygon style="fill:#231F20;" points="257.249,264.97 243.649,250.57 199.249,279.77 173.249,258.17 147.249,279.77 
		102.849,250.57 88.849,264.97 44.449,196.57 88.849,224.97 102.849,210.57 147.249,239.77 173.249,218.17 199.249,239.77 
		243.649,210.57 257.249,224.97 302.049,196.57 	"/>
	<path style="fill:#231F20;" d="M152.449,186.17c0,0-18.4-32-36.8-32c-18.4,0-36.8,32-36.8,32c0-31.2,16-55.6,36.8-55.6
		C136.449,130.57,152.449,154.97,152.449,186.17z"/>
	<path style="fill:#231F20;" d="M271.649,186.17c0,0-18.4-32-36.8-32s-36.8,32-36.8,32c0-31.2,16-55.6,36.8-55.6
		C255.649,130.57,271.649,154.97,271.649,186.17z"/>
</g>
<g>
</g>
<g>
</g>
<g>
</g>
<g>
</g>
<g>
</g>
<g>
</g>
<g>
</g>
<g>
</g>
<g>
</g>
<g>
</g>
<g>
</g>
<g>
</g>
<g>
</g>
<g>
</g>
<g>
</g>
</svg>
