<svg height="512pt" viewBox="0 -10 512 512" width="512pt" xmlns="http://www.w3.org/2000/svg"><path d="m434.59375 431.117188c-.308594 0-.625-.015626-.9375-.046876-2.332031-.242187-4.46875-1.40625-5.941406-3.226562s-2.164063-4.152344-1.917969-6.484375c1.617187-15.316406 1.984375-30.546875 1.988281-30.703125-.011718-2.359375.949219-4.621094 2.65625-6.25 1.707032-1.632812 4.011719-2.488281 6.371094-2.367188 4.871094.109376 8.730469 4.152344 8.621094 9.023438-.015625.648438-.382813 16.085938-2.074219 32.152344-.472656 4.484375-4.253906 7.894531-8.765625 7.902344zm0 0" fill="#f5efca"/><path d="m404.667969 428.824219c-2.570313.003906-5.011719-1.113281-6.691407-3.058594-1.679687-1.941406-2.429687-4.523437-2.054687-7.0625 1.828125-14.085937 2.945313-28.257813 3.355469-42.453125-.003906-2.363281.960937-4.621094 2.671875-6.246094 1.710937-1.628906 4.015625-2.480468 6.375-2.355468 4.871093.125 8.722656 4.175781 8.597656 9.050781-.40625 14.914062-1.585937 29.796875-3.53125 44.589843-.640625 4.324219-4.351563 7.53125-8.722656 7.535157zm0 0" fill="#f5efca"/><path d="m373.675781 421.855469c-2.800781-.003907-5.4375-1.335938-7.101562-3.589844-1.664063-2.257813-2.160157-5.167969-1.335938-7.847656 3.644531-15.074219 5.5-30.527344 5.519531-46.035157 0-4.875 3.953126-8.828124 8.828126-8.828124s8.828124 3.953124 8.828124 8.828124c-.003906 17.273438-2.121093 34.484376-6.308593 51.246094-1.140625 3.695313-4.558594 6.21875-8.429688 6.226563zm0 0" fill="#f5efca"/><path d="m345.703125 410.460938c-.355469 0-.707031-.019532-1.058594-.058594-2.328125-.277344-4.445312-1.46875-5.894531-3.308594s-2.105469-4.183594-1.828125-6.507812c2.046875-17.140626 2.589844-36.253907 2.589844-36.449219.003906-2.359375.976562-4.613281 2.691406-6.238281 1.714844-1.621094 4.019531-2.46875 6.375-2.34375 4.871094.136718 8.714844 4.191406 8.582031 9.066406-.023437.808594-.566406 20.117187-2.703125 38.0625-.53125 4.429687-4.289062 7.769531-8.753906 7.777344zm0 0" fill="#f5efca"/><path d="m316.035156 392.894531c-.28125 0-.5625-.011719-.84375-.039062-4.851562-.464844-8.410156-4.769531-7.953125-9.621094 1.367188-14.328125 1.726563-27.773437 1.730469-27.90625.023438-2.351563.996094-4.597656 2.703125-6.21875 1.707031-1.617187 4-2.476563 6.351563-2.375 2.339843.058594 4.558593 1.042969 6.171874 2.742187 1.613282 1.695313 2.488282 3.964844 2.425782 6.304688-.011719.570312-.375 14.164062-1.800782 29.121094-.433593 4.53125-4.234374 7.992187-8.785156 7.992187zm0 0" fill="#f5efca"/><path d="m284.960938 376.476562c-.253907 0-.507813-8.222656-.769532-8.246093-4.855468-.417969-8.453125 3.511719-8.035156-1.34375 1.199219-13.878907 1.558594-34.664063 1.558594-34.792969-.035156-2.375.925781-4.65625 2.648437-6.285156 1.726563-1.632813 4.054688-2.464844 6.421875-2.292969 4.875.132813 8.714844 4.195313 8.578125 9.066406-.011719.53125-.375 21.4375-1.621093 35.828125-.394532 4.558594-4.207032 8.058594-8.78125 8.066406zm0 0" fill="#f5efca"/><path d="m450.472656 430.765625c.96875 11.210937-28.425781 60.46875-79.714844 60.46875-35.308593 0-44.136718-17.65625-97.101562-35.3125-52.964844-17.652344-52.964844 0-150.070312-26.480469-53.136719-14.542968-93.433594-57.953125-103.988282-112.023437l10.328125-4.679688 83.683594-37.957031c92.074219-6.886719 122.085937 40.695312 171.34375 84.65625 9.761719 8.9375 20.144531 17.167969 31.074219 24.628906.53125.441406 1.148437.796875 1.765625 1.238282 8.941406 6 18.261719 11.425781 27.894531 16.242187v.085937c9.03125 4.492188 18.382812 8.300782 27.984375 11.386719 10.097656 3.238281 20.46875 5.542969 30.984375 6.886719v.089844c12.445312 1.589844 22.421875 1.589844 29.925781 2.292968 7.945313.707032 13.152344 2.207032 15.625 7.152344.1875.414063.28125.867188.265625 1.324219zm0 0" fill="#f18d46"/><path d="m450.472656 430.765625c-15.441406 25.699219-42.863281 41.820313-72.828125 42.8125-35.3125 0-44.136719-17.65625-97.105469-35.308594-52.964843-17.65625-52.964843 0-150.066406-26.484375-48.660156-12.929687-86.886718-50.585937-100.546875-99.046875l83.683594-37.957031c92.074219-6.886719 122.085937 40.695312 171.34375 84.65625 9.761719 8.9375 20.144531 17.167969 31.074219 24.628906.53125.441406 1.148437.796875 1.765625 1.238282 8.941406 6 18.261719 11.425781 27.894531 16.242187v.085937c9.03125 4.492188 18.382812 8.300782 27.984375 11.386719 10.097656 3.238281 20.46875 5.542969 30.984375 6.886719v.089844c12.445312 1.589844 22.421875 1.589844 29.925781 2.292968 7.945313.707032 13.152344 2.207032 15.625 7.152344.1875.414063.28125.867188.265625 1.324219zm0 0" fill="#fac176"/><path d="m256 385.308594c-1.121094-.003906-2.234375-.21875-3.277344-.636719-15.734375-6.476563-32.261718-10.828125-49.144531-12.933594-19.152344-2.640625-38.003906-7.117187-56.296875-13.371093-28.496094-10.644532-53.933594-28.144532-74.0625-50.949219-3.304688-3.585938-3.070312-9.171875.515625-12.472657 3.585937-3.300781 9.171875-3.070312 12.472656.515626 18.113281 20.609374 41 36.457031 66.660157 46.160156 17.34375 5.945312 35.222656 10.1875 53.386718 12.667968 18.214844 2.308594 36.042969 7.011719 53.027344 13.988282 3.9375 1.566406 6.207031 5.710937 5.40625 9.871094-.800781 4.164062-4.449219 7.167968-8.6875 7.160156zm0 0" fill="#f18d46"/><path d="m137.796875 274.164062c-20.742187 15.625-36.367187 42.8125-84.832031 53.582032-5.402344 1.277344-10.890625 2.160156-16.417969 2.648437-10.0625 1.941407-8.386719-10.328125-10.0625-15.710937l10.855469-5.296875c4.933594-.460938 9.828125-1.257813 14.65625-2.382813 22.847656-4.746094 43.914062-15.78125 60.820312-31.871094l.792969-.351562c8.5625-.617188 16.597656-.792969 24.1875-.617188zm0 0" fill="#f18d46"/><g fill="#f5efca"><path d="m494.335938 261.714844c-3.058594 0-5.898438-1.585938-7.503907-4.1875-1.605469-2.601563-1.75-5.851563-.382812-8.585938 5.484375-15.75 8.15625-32.34375 7.894531-49.019531.003906-4.871094 3.953125-8.824219 8.828125-8.824219h.003906c4.875 0 8.824219 3.953125 8.824219 8.824219 0 1.527344-.113281 37.617187-9.757812 56.914063-1.5 2.996093-4.558594 4.882812-7.90625 4.878906zm0 0"/><path d="m458.980469 279.070312c-1.300781.003907-2.582031-.296874-3.746094-.875-2.101563-.972656-3.71875-2.746093-4.488281-4.925781-.773438-2.179687-.636719-4.578125.382812-6.652343 6.011719-12.101563 16.734375-33.683594 16.734375-49.039063 0-4.875 3.949219-8.828125 8.828125-8.828125 4.875 0 8.824219 3.953125 8.824219 8.828125 0 19.496094-11.46875 42.589844-18.320313 56.382813-1.5625 3.109374-4.734374 5.082031-8.214843 5.109374zm0 0"/><path d="m423.714844 288.199219c-3.058594-.003907-5.898438-1.589844-7.503906-4.191407-1.605469-2.601562-1.75-5.847656-.382813-8.585937 5.566406-9.488281 8.304687-20.367187 7.894531-31.359375 0-4.875 3.953125-8.828125 8.828125-8.828125s8.828125 3.953125 8.828125 8.828125c.433594 13.734375-2.945312 27.324219-9.757812 39.257812-1.496094 2.992188-4.558594 4.882813-7.90625 4.878907zm0 0"/><path d="m388.40625 288.199219c-3.066406-.003907-5.910156-1.59375-7.515625-4.207031-1.605469-2.609376-1.738281-5.867188-.355469-8.601563 3.796875-7.511719 7.527344-16.84375 10.679688-24.984375 1.78125-4.511719 6.871094-6.742188 11.398437-4.992188 4.523438 1.75 6.789063 6.828126 5.066407 11.363282-3.304688 8.542968-7.246094 18.382812-11.386719 26.570312-1.503907 2.976563-4.554688 4.851563-7.886719 4.851563zm0 0"/><path d="m353.09375 288.199219c-3.058594-.003907-5.894531-1.589844-7.503906-4.191407-1.605469-2.601562-1.75-5.847656-.382813-8.585937 3.25-6.488281 6.917969-15.070313 11.222657-26.238281 1.757812-4.550782 6.867187-6.816406 11.417968-5.058594 4.546875 1.753906 6.8125 6.863281 5.058594 11.414062-4.515625 11.699219-8.40625 20.785157-11.90625 27.785157-1.5 2.992187-4.558594 4.878906-7.90625 4.875zm0 0"/><path d="m326.613281 279.371094c-3.070312-.003906-5.914062-1.597656-7.515625-4.210938-1.605468-2.617187-1.734375-5.875-.347656-8.613281 3.011719-5.933594 5.988281-13.160156 8.242188-18.792969 1.128906-2.988281 3.785156-5.132812 6.945312-5.609375 3.160156-.476562 6.328125.792969 8.289062 3.316407 1.957032 2.527343 2.398438 5.910156 1.152344 8.855468-2.386718 5.96875-5.5625 13.664063-8.886718 20.222656-1.507813 2.96875-4.554688 4.835938-7.878907 4.832032zm0 0"/><path d="m291.300781 279.371094c-3.066406-.003906-5.914062-1.597656-7.519531-4.214844-1.601562-2.617188-1.730469-5.875-.339844-8.613281 2.214844-4.351563 4.609375-9.746094 7.550782-16.976563 1.148437-2.976562 3.816406-5.101562 6.972656-5.558594 3.160156-.457031 6.316406.828126 8.261718 3.359376 1.945313 2.527343 2.371094 5.910156 1.117188 8.84375-3.125 7.703124-5.722656 13.527343-8.164062 18.332031-1.503907 2.964843-4.550782 4.832031-7.878907 4.828125zm0 0"/></g><path d="m512 191.097656c0-26.484375 0-123.589844-70.621094-141.242187-70.621094-17.65625-123.585937 17.652343-203.035156-8.828125-79.445312-26.484375-97.101562-52.964844-123.585938-35.3125-26.480468 17.65625-44.136718 70.621094-70.621093 79.449218-26.480469 8.828126-44.136719 44.140626-44.136719 79.449219 0 35.308594 35.308594 17.65625 35.308594 17.65625s35.3125 8.828125 8.828125 44.136719c-26.480469 35.308594-79.445313 105.929688 0 88.277344 79.449219-17.65625 70.621093-79.449219 141.242187-61.792969 70.621094 17.652344 97.105469-8.828125 185.378906 0 88.277344 8.824219 141.242188-44.140625 141.242188-61.792969zm0 0" fill="#f9eab0"/><path d="m512 191.097656c0 17.652344-52.964844 70.617188-141.242188 61.792969-88.273437-8.828125-114.757812 17.652344-185.378906 0-70.621094-17.65625-61.792968 44.136719-141.242187 61.792969-39.371094 8.738281-46.253907-4.152344-39.8125-23.746094 5.03125 6 16.863281 7.855469 38.84375 3 79.445312-17.65625 70.621093-79.449219 141.242187-61.792969 70.617188 17.65625 97.101563-8.828125 185.378906 0 88.273438 8.828125 141.238282-44.136719 141.238282-61.792969 0-2.648437 0-6.003906-.085938-9.976562 1.058594 13.066406 1.058594 24.101562 1.058594 30.722656zm0 0" fill="#fac176"/><path d="m476.679688 155.785156c-4.046876-.003906-7.570313-2.757812-8.554688-6.683594-3.976562-18.019531-12.277344-34.800781-24.1875-48.894531-3.351562-3.46875-3.296875-8.984375.121094-12.386719 3.414062-3.40625 8.933594-3.433593 12.386718-.070312 14.253907 16.292969 24.164063 35.921875 28.808594 57.066406.660156 2.636719.066406 5.433594-1.609375 7.578125-1.675781 2.140625-4.242187 3.394531-6.964843 3.390625zm0 0" fill="#fac176"/><path d="m397.242188 120.476562c17.65625 0 44.136718 44.136719 8.828124 44.136719-35.3125 0-26.484374-44.136719-8.828124-44.136719zm0 0" fill="#fac176"/><path d="m264.828125 93.992188c36.394531 0 79.449219 26.484374 79.449219 70.621093 0 0-26.484375-8.828125-35.3125 8.828125s-44.136719 8.828125-44.136719-26.484375c0-35.308593-17.65625-52.964843 0-52.964843zm0 0" fill="#fac176"/><path d="m167.722656 76.335938c-17.652344 0-35.308594 44.140624 8.828125 52.96875 44.140625 8.824218-8.828125 26.480468 8.828125 44.136718s35.3125 26.480469 44.136719 17.65625c8.828125-8.828125-17.652344-35.3125-8.824219-52.96875 8.824219-17.652344 0-61.792968-52.96875-61.792968zm0 0" fill="#f18d46"/><path d="m70.621094 129.304688c-12.484375 0 17.65625-52.96875 35.308594-44.140626 17.65625 8.828126 8.828124 61.792969 17.65625 88.277344 8.828124 26.480469-17.65625 44.136719-26.484376 44.136719-8.824218 0 0-35.308594 0-44.136719s-8.824218-44.136718-26.480468-44.136718zm0 0" fill="#fac176"/></svg>